<svg width="94" height="80" viewBox="0 0 94 80" fill="none" xmlns="http://www.w3.org/2000/svg">
<g clip-path="url(#clip0_3338_2525)">
<path d="M86.7677 0.0059433C79.5683 0.133556 72.369 0.258205 65.1726 0.385822C62.754 0.427368 60.6992 2.39206 60.6992 4.83752C60.6992 15.2486 60.6992 25.6596 60.6992 36.0706C60.6992 37.5575 60.6992 39.0444 60.6992 40.5283C60.6992 42.9352 62.748 44.98 65.1726 44.98C73.2876 44.98 81.4025 44.98 89.5144 44.98C91.7989 44.98 94.1728 42.9352 93.9879 40.5283C93.1857 30.0104 92.3864 19.4925 91.5841 8.97463C91.4708 7.46699 91.3545 5.96232 91.2412 4.45468C91.0652 2.13683 89.3086 -0.109795 86.7677 0.00297928C84.4951 0.103886 82.1033 1.96766 82.2942 4.45468C83.0964 14.9726 83.8957 25.4904 84.6979 36.0083C84.8113 37.516 84.9276 39.0206 85.0409 40.5283L89.5144 36.0766C81.3995 36.0766 73.2846 36.0766 65.1726 36.0766L69.6461 40.5283C69.6461 30.1172 69.6461 19.7062 69.6461 9.29515C69.6461 7.80829 69.6461 6.32142 69.6461 4.83752L65.1726 9.28922C72.372 9.16161 79.5713 9.03696 86.7677 8.90935C89.1058 8.8678 91.3515 6.89124 91.2412 4.45765C91.1308 2.02405 89.2758 -0.0385742 86.7677 0.0059433Z" fill="#0F6FF5"/>
<path d="M8.04714 50.7405C15.4314 50.7405 22.8156 50.7405 30.1969 50.7405C31.5896 50.7405 32.9794 50.7405 34.3721 50.7405C32.9347 48.8618 31.4972 46.9832 30.0597 45.1046C27.2682 53.2868 26.2244 62.8342 29.4394 71.0699C30.8679 74.7262 33.1166 78.9969 37.3783 79.8071C38.9053 80.0979 40.295 80.0475 41.816 79.7032C43.6532 79.2877 46.1315 78.2579 47.1335 76.5514C47.8075 75.4058 47.7449 74.1772 47.7449 72.9218C47.7449 70.2745 47.7449 67.6243 47.7449 64.977C47.7449 64.0985 47.6703 63.1785 47.7449 62.303C47.7449 62.2911 47.7538 62.1309 47.7449 62.1279C48.0998 62.2496 47.3751 63.137 47.9 62.5256C48.0789 62.3178 47.9805 62.3268 48.0879 62.0804C48.5978 60.8963 49.1526 59.727 49.7341 58.5725C50.8853 56.2902 52.1647 54.0733 53.5903 51.9513C54.1659 51.0936 54.7742 50.2597 55.3916 49.4317C54.8399 50.1706 55.6004 49.1735 55.7912 48.939C56.1074 48.5532 56.4265 48.1763 56.7545 47.7994C57.7655 46.6419 58.8332 45.5349 59.9665 44.4962C60.2737 44.2143 60.5868 43.9383 60.9059 43.6682C61.1654 43.4486 61.4248 43.2319 61.6933 43.0212C61.3622 43.2824 61.574 43.1073 61.7887 42.9589C62.248 42.6413 62.7013 42.3119 63.1904 42.0448C64.5593 41.291 65.4062 39.7418 65.4062 38.2015C65.4062 29.9896 65.4063 21.7747 65.4063 13.5628C65.4063 12.3995 65.4063 11.2331 65.4063 10.0697C65.4063 7.66285 63.3574 5.61803 60.9328 5.61803H57.5001C58.2516 5.81985 59.0062 6.02463 59.7577 6.22644C58.1204 5.4281 56.4861 4.61789 54.8399 3.83142C53.5068 3.19631 52.3317 2.99747 50.9151 2.99747H38.7085C33.8413 2.99747 28.9741 2.99747 24.107 2.99747C21.563 2.99747 18.3779 2.60275 15.8907 3.1607C12.5236 3.91452 9.32954 6.42825 8.14257 9.65424C6.79754 13.3106 8.41695 18.804 12.0882 20.6321L13.1559 12.4944C9.80373 13.8893 7.00631 16.3259 5.80145 19.8368C4.63834 23.2201 5.29146 27.8943 8.20818 30.3012C8.86728 27.8201 9.5234 25.342 10.1825 22.861C6.94965 23.9442 4.25958 26.8348 3.2098 30.0401C2.03775 33.6163 3.43348 37.2963 5.6911 40.0979L6.59772 33.1058C2.1809 35.2337 -1.08475 39.5281 0.346771 44.6476C1.16094 47.553 3.8689 50.0133 6.86316 50.5832C9.15358 51.0194 11.7989 49.9481 12.3655 47.4729C12.8696 45.2767 11.7005 42.4633 9.24007 41.9973C9.12973 41.9766 9.01938 41.9498 8.91201 41.9172C8.0024 41.6264 8.92096 41.8845 9.10288 42.0329C8.97762 41.9291 8.7629 41.8371 8.61378 41.7658C8.0024 41.475 8.77185 41.8964 8.94184 42.0418C8.63764 41.7807 8.3752 41.294 9.04622 42.3C8.83746 41.9884 8.62273 41.386 9.0492 42.5256C8.71518 41.6382 9.16551 42.6235 8.99253 42.6502C8.95973 42.6562 9.06113 41.4958 8.96569 42.2822C8.87921 42.9797 9.09692 41.9202 9.12674 41.7836C9.37428 40.6054 8.91201 42.1576 9.02832 41.9587C8.16941 43.4337 8.85535 42.2526 9.35638 41.7718C8.75991 42.3446 9.4548 41.7065 9.74706 41.5254C10.1855 41.2524 10.6477 41.0239 11.113 40.7983C13.9551 39.4302 13.6658 35.851 12.0196 33.8062C13.2602 35.3465 12.0792 33.7498 11.7989 33.2186C12.3059 34.1772 11.7065 32.8357 11.6587 32.53C11.7303 33.0494 11.7542 33.0375 11.7333 32.4974C11.7661 32.7111 11.7124 32.8951 11.5722 33.0494C11.6707 32.8387 12.6578 31.4765 12.1389 32.0552C12.3805 31.7851 13.5197 30.9809 12.4699 31.6308C13.1857 31.1886 13.9074 30.9987 12.5624 31.4498C15.4672 30.4763 17.3043 26.2917 14.5367 24.0095C14.4621 23.9472 14.322 23.7365 14.2444 23.7276L14.1341 23.6029C14.5993 24.2291 14.7276 24.3923 14.5188 24.0956C14.4442 23.9175 14.2981 23.7216 14.1907 23.5554C13.7523 22.8906 14.5605 24.1223 14.2444 23.6266C14.0357 23.2972 14.307 22.763 14.1937 23.5584C14.2056 23.4664 14.2802 22.4217 14.2027 22.855C14.1371 23.2349 14.4323 22.1991 14.4293 22.208C14.2802 22.6028 14.3667 22.6206 14.48 22.2377C14.7275 21.8756 14.7484 21.8282 14.5427 22.0923C14.3339 22.3446 14.3637 22.3149 14.6351 21.9973C14.7961 21.843 14.9423 21.6768 15.1033 21.5284C15.1779 21.4602 15.9533 20.8933 15.3538 21.2999C14.82 21.662 15.8161 21.0447 16.0159 20.9259C16.4305 20.6826 17.5071 20.2671 15.5358 21.0862C17.2357 20.3799 18.4793 19.3174 18.7388 17.3854C18.9625 15.7264 18.193 13.7409 16.6034 12.9485C16.4245 12.8595 15.9264 12.4974 16.6183 13.0019C17.3102 13.5064 16.8003 13.1058 16.6512 12.9633C16.0129 12.3579 17.3252 13.8359 16.7376 13.0168C16.4961 12.6814 16.7526 12.5568 16.7943 13.1711C16.7824 13.0019 16.3291 11.978 16.6571 12.7259C16.5468 12.4737 16.8241 11.6338 16.5408 12.7675C16.5796 12.5627 16.6333 12.3638 16.7078 12.168C16.4454 12.7615 16.4334 12.8506 16.672 12.4321C16.6601 12.4648 16.1263 13.3521 16.5378 12.6488C16.7168 12.3431 17.5399 12.0226 16.5319 12.6013C16.9166 12.3787 17.3341 12.162 17.7069 11.9246C18.4286 11.4646 16.8748 12.1947 17.3699 12.0552C17.513 12.0166 17.6502 11.9216 17.7964 11.8979C18.9475 11.7169 17.0776 11.8831 17.1343 11.9098C17.7725 12.2066 18.9595 11.9098 19.717 11.9098C20.6445 11.9098 21.569 11.9098 22.4965 11.9098C30.1343 11.9098 37.775 11.9098 45.4127 11.9098C47.6465 11.9098 49.8803 11.9098 52.114 11.9098L49.8564 11.3014C51.5056 12.1057 53.1459 12.9248 54.8041 13.7112C56.835 14.6758 58.7467 14.5303 60.9298 14.5303L56.4563 10.0786C56.4563 18.2905 56.4563 26.5054 56.4563 34.7173C56.4563 35.8807 56.4563 37.047 56.4563 38.2104C57.1959 36.9283 57.9325 35.6492 58.6722 34.3671C53.0803 37.4447 48.5471 43.2616 45.1831 48.5087C43.9812 50.3814 42.8897 52.3253 41.8966 54.3137C41.3568 55.394 40.8468 56.4891 40.3636 57.599C39.7433 59.0177 38.8755 60.5639 38.8009 62.1398C38.7114 64.0125 38.8009 65.9089 38.8009 67.7816C38.8009 69.9599 38.8009 72.1383 38.8009 74.3167C39.5405 73.0346 40.2772 71.7555 41.0168 70.4734C40.8438 70.5832 40.6619 70.6811 40.4799 70.779C40.3219 70.8651 40.1549 70.9541 39.9879 71.0194C40.2622 70.9096 40.4919 70.877 39.7135 71.058C39.5644 71.0936 39.4003 71.1203 39.2542 71.1649C38.449 71.4231 39.6091 71.0669 39.8895 71.0936C39.7165 71.0788 39.4958 71.1144 39.3198 71.1263C39.1677 71.1352 38.9649 71.0669 38.8188 71.1025C38.8605 71.0936 40.1758 71.4142 39.6479 71.2094C39.5524 71.1708 39.4332 71.1856 39.3377 71.1381C38.5713 70.7642 39.7403 71.2984 39.8477 71.3874C39.7344 71.2895 39.4898 71.1738 39.3467 71.1144C38.7383 70.8651 40.2891 72.0582 39.7016 71.3785C39.621 71.2865 39.5256 71.1916 39.4361 71.1085C38.7949 70.5149 39.6688 71.4557 39.633 71.3934C39.123 70.5387 38.5623 69.7492 38.1358 68.8411C38.0822 68.7283 38.0315 68.6126 37.9778 68.4968C37.6408 67.8023 38.106 68.8233 38.1209 68.8322C37.9837 68.7372 37.8823 68.2119 37.8257 68.0516C37.5692 67.3364 37.3485 66.6093 37.1606 65.8733C36.9727 65.1373 36.8266 64.4487 36.7043 63.7305C36.6626 63.4961 36.6298 63.2586 36.591 63.0242C36.5999 63.0776 36.6596 63.8196 36.6327 63.2943C36.6059 62.769 36.5284 62.2733 36.4956 61.7629C36.4299 60.7301 36.415 59.6973 36.4449 58.6615C36.4628 58.0709 36.4956 57.4803 36.5433 56.8897C36.5612 56.6612 36.5821 56.4327 36.6059 56.2042C36.6268 55.9994 36.7222 55.1536 36.6447 55.7442C37.0175 52.9277 37.775 50.1617 38.6906 47.4759C39.636 44.704 37.1457 41.84 34.3781 41.84C27.7752 41.84 21.1724 41.84 14.5695 41.84C12.3984 41.84 10.2242 41.84 8.0531 41.84C5.71198 41.84 3.47225 43.8878 3.57961 46.2917C3.68697 48.6956 5.54496 50.7434 8.0531 50.7434L8.04714 50.7405Z" fill="#0F6FF5"/>
<path d="M89.7715 40.5283L87.0248 4.45763L65.4297 4.8375V40.5283H89.7715Z" fill="#AACDFF"/>
<path d="M8.30328 46.2888L34.6283 46.2888C29.3645 61.4364 33.9424 71.4616 36.5728 74.3078C39.2062 77.1539 43.5246 74.3078 43.5246 74.3078V62.119C48.1054 50.6069 53.8941 44.1223 57.5684 40.8903C57.5684 30.5861 57.5684 20.2819 57.5684 9.97774L52.3702 7.44621H17.3457C17.3457 7.44621 12.4249 8.69862 12.4249 12.2303C12.4249 15.762 14.599 16.7859 14.599 16.7859C14.599 16.7859 10.9367 18.2668 10.1344 21.7985C9.33219 25.3302 11.6226 27.1524 11.6226 27.1524C11.6226 27.1524 9.44849 27.835 7.96031 30.7968C6.47213 33.7587 9.10553 36.9461 9.10553 36.9461C6.3588 38.1985 5.37165 39.7715 5.37165 39.7715C3.01263 45.3331 8.30328 46.2858 8.30328 46.2858V46.2888Z" fill="#F6F9FF"/>
<path d="M70.1601 11.0254C70.1601 9.74623 71.2009 8.71047 72.4863 8.71047C73.7717 8.71047 74.8125 9.74623 74.8125 11.0254C74.8125 12.3045 73.7717 13.3402 72.4863 13.3402C71.2009 13.3402 70.1601 12.3045 70.1601 11.0254Z" fill="#F6F9FF"/>
</g>
<defs>
<clipPath id="clip0_3338_2525">
<rect width="94" height="80" fill="white" transform="matrix(-1 0 0 -1 94 80)"/>
</clipPath>
</defs>
</svg>
