<svg width="94" height="80" viewBox="0 0 94 80" fill="none" xmlns="http://www.w3.org/2000/svg">
<g clip-path="url(#clip0_3338_2512)">
<path d="M7.23232 79.9941C14.4317 79.8664 21.631 79.7418 28.8274 79.6142C31.246 79.5726 33.3008 77.6079 33.3008 75.1625C33.3008 64.7514 33.3008 54.3404 33.3008 43.9294C33.3008 42.4425 33.3008 40.9556 33.3008 39.4717C33.3008 37.0648 31.252 35.02 28.8274 35.02C20.7124 35.02 12.5975 35.02 4.48559 35.02C2.20113 35.02 -0.172802 37.0648 0.0121027 39.4717C0.814349 49.9896 1.61361 60.5075 2.41586 71.0254C2.52919 72.533 2.6455 74.0377 2.75883 75.5453C2.93478 77.8632 4.69137 80.1098 7.23232 79.997C9.50485 79.8961 11.8967 78.0323 11.7058 75.5453C10.9036 65.0274 10.1043 54.5096 9.30205 43.9917C9.18873 42.484 9.07242 40.9794 8.95909 39.4717L4.48559 43.9234C12.6005 43.9234 20.7154 43.9234 28.8274 43.9234L24.3539 39.4717C24.3539 49.8828 24.3539 60.2938 24.3539 70.7048C24.3539 72.1917 24.3539 73.6786 24.3539 75.1625L28.8274 70.7108C21.628 70.8384 14.4287 70.963 7.23232 71.0907C4.89417 71.1322 2.64848 73.1088 2.75883 75.5424C2.86917 77.9759 4.72418 80.0386 7.23232 79.9941Z" fill="#0F6FF5"/>
<path d="M85.9529 29.2595C78.5686 29.2595 71.1844 29.2595 63.8031 29.2595C62.4104 29.2595 61.0206 29.2595 59.6279 29.2595C61.0653 31.1382 62.5028 33.0168 63.9403 34.8954C66.7318 26.7132 67.7756 17.1658 64.5606 8.93011C63.1321 5.27378 60.8834 1.00312 56.6217 0.192908C55.0947 -0.0979361 53.705 -0.0474835 52.184 0.296781C50.3468 0.712273 47.8685 1.7421 46.8665 3.44858C46.1925 4.59415 46.2551 5.82282 46.2551 7.0782C46.2551 9.72548 46.2551 12.3757 46.2551 15.023C46.2551 15.9015 46.3297 16.8215 46.2551 17.697C46.2551 17.7089 46.2462 17.8691 46.2551 17.8721C45.9002 17.7504 46.6249 16.863 46.1 17.4744C45.9211 17.6822 46.0195 17.6732 45.9121 17.9196C45.4022 19.1037 44.8474 20.273 44.2659 21.4275C43.1147 23.7098 41.8353 25.9267 40.4097 28.0487C39.8341 28.9064 39.2258 29.7403 38.6084 30.5683C39.1601 29.8294 38.3996 30.8265 38.2088 31.061C37.8926 31.4468 37.5735 31.8237 37.2455 32.2006C36.2345 33.3581 35.1668 34.4651 34.0335 35.5038C33.7263 35.7857 33.4132 36.0617 33.0941 36.3318C32.8346 36.5514 32.5752 36.7681 32.3067 36.9788C32.6378 36.7176 32.426 36.8927 32.2113 37.0411C31.752 37.3587 31.2987 37.6881 30.8096 37.9552C29.4407 38.709 28.5938 40.2582 28.5938 41.7985C28.5938 50.0104 28.5938 58.2253 28.5938 66.4372C28.5938 67.6005 28.5938 68.7669 28.5938 69.9303C28.5938 72.3372 30.6426 74.382 33.0672 74.382H36.4999C35.7484 74.1802 34.9938 73.9754 34.2423 73.7736C35.8796 74.5719 37.5139 75.3821 39.1601 76.1686C40.4932 76.8037 41.6683 77.0025 43.0849 77.0025H55.2915C60.1587 77.0025 65.0259 77.0025 69.893 77.0025C72.437 77.0025 75.6221 77.3972 78.1093 76.8393C81.4764 76.0855 84.6705 73.5718 85.8574 70.3458C87.2025 66.6894 85.5831 61.196 81.9118 59.3679L80.8441 67.5056C84.1963 66.1107 86.9937 63.6741 88.1986 60.1632C89.3617 56.7799 88.7085 52.1057 85.7918 49.6988C85.1327 52.1799 84.4766 54.658 83.8175 57.139C87.0504 56.0558 89.7404 53.1652 90.7902 49.9599C91.9622 46.3837 90.5665 42.7037 88.3089 39.9021L87.4023 46.8942C91.8191 44.7663 95.0847 40.4719 93.6532 35.3524C92.8391 32.447 90.1311 29.9867 87.1368 29.4168C84.8464 28.9806 82.2011 30.0519 81.6345 32.5271C81.1304 34.7233 82.2995 37.5367 84.7599 38.0027C84.8703 38.0234 84.9806 38.0502 85.088 38.0828C85.9976 38.3736 85.079 38.1155 84.8971 37.9671C85.0224 38.0709 85.2371 38.1629 85.3862 38.2342C85.9976 38.525 85.2282 38.1036 85.0582 37.9582C85.3624 38.2193 85.6248 38.706 84.9538 37.7C85.1625 38.0116 85.3773 38.614 84.9508 37.4744C85.2848 38.3618 84.8345 37.3765 85.0075 37.3498C85.0403 37.3438 84.9389 38.5042 85.0343 37.7178C85.1208 37.0203 84.9031 38.0798 84.8733 38.2164C84.6257 39.3946 85.088 37.8424 84.9717 38.0413C85.8306 36.5663 85.1447 37.7474 84.6436 38.2282C85.2401 37.6554 84.5452 38.2935 84.2529 38.4746C83.8145 38.7476 83.3523 38.9761 82.887 39.2017C80.0449 40.5698 80.3342 44.149 81.9804 46.1938C80.7398 44.6535 81.9208 46.2502 82.2011 46.7814C81.6941 45.8228 82.2935 47.1643 82.3413 47.47C82.2697 46.9506 82.2458 46.9625 82.2667 47.5026C82.2339 47.2889 82.2876 47.1049 82.4278 46.9506C82.3293 47.1613 81.3422 48.5235 81.8611 47.9448C81.6195 48.2149 80.4803 49.0191 81.5301 48.3692C80.8143 48.8114 80.0926 49.0013 81.4376 48.5502C78.5328 49.5237 76.6957 53.7083 79.4633 55.9905C79.5379 56.0528 79.678 56.2635 79.7556 56.2724L79.8659 56.3971C79.4007 55.7709 79.2724 55.6077 79.4812 55.9044C79.5558 56.0825 79.7019 56.2784 79.8093 56.4446C80.2477 57.1094 79.4395 55.8777 79.7556 56.3734C79.9643 56.7028 79.693 57.237 79.8063 56.4416C79.7944 56.5336 79.7198 57.5783 79.7973 57.145C79.8629 56.7651 79.5677 57.8009 79.5707 57.792C79.7198 57.3972 79.6333 57.3794 79.52 57.7623C79.2725 58.1244 79.2516 58.1718 79.4573 57.9077C79.6661 57.6554 79.6363 57.6851 79.3649 58.0027C79.2039 58.157 79.0577 58.3232 78.8967 58.4716C78.8221 58.5398 78.0467 59.1067 78.6462 58.7001C79.18 58.338 78.1839 58.9553 77.9841 59.0741C77.5695 59.3174 76.4929 59.7329 78.4642 58.9138C76.7643 59.6201 75.5207 60.6826 75.2612 62.6146C75.0375 64.2736 75.807 66.2591 77.3966 67.0515C77.5755 67.1405 78.0736 67.5026 77.3817 66.9981C76.6898 66.4936 77.1997 66.8942 77.3488 67.0367C77.9871 67.6421 76.6748 66.1641 77.2624 66.9832C77.5039 67.3186 77.2474 67.4432 77.2057 66.8289C77.2176 66.9981 77.6709 68.022 77.3429 67.2741C77.4532 67.5263 77.1759 68.3662 77.4592 67.2325C77.4204 67.4373 77.3667 67.6362 77.2922 67.832C77.5546 67.2385 77.5666 67.1494 77.328 67.5679C77.3399 67.5352 77.8737 66.6479 77.4622 67.3512C77.2832 67.6569 76.4601 67.9774 77.4681 67.3987C77.0834 67.6213 76.6659 67.838 76.2931 68.0754C75.5714 68.5354 77.1252 67.8053 76.6301 67.9448C76.487 67.9834 76.3498 68.0784 76.2036 68.1021C75.0525 68.2831 76.9224 68.1169 76.8657 68.0902C76.2275 67.7934 75.0405 68.0902 74.283 68.0902C73.3555 68.0902 72.431 68.0902 71.5035 68.0902C63.8657 68.0902 56.225 68.0902 48.5873 68.0902C46.3535 68.0902 44.1197 68.0902 41.886 68.0902L44.1436 68.6986C42.4944 67.8943 40.8541 67.0752 39.1959 66.2888C37.165 65.3242 35.2533 65.4697 33.0702 65.4697L37.5437 69.9214C37.5437 61.7095 37.5437 53.4946 37.5437 45.2827C37.5437 44.1193 37.5437 42.953 37.5437 41.7896C36.8041 43.0717 36.0675 44.3508 35.3278 45.6329C40.9197 42.5553 45.4529 36.7384 48.8169 31.4913C50.0188 29.6186 51.1103 27.6747 52.1034 25.6863C52.6432 24.606 53.1532 23.5109 53.6364 22.401C54.2567 20.9823 55.1245 19.4361 55.1991 17.8602C55.2886 15.9875 55.1991 14.0911 55.1991 12.2184C55.1991 10.0401 55.1991 7.8617 55.1991 5.68334C54.4595 6.96543 53.7228 8.24455 52.9832 9.52664C53.1562 9.41683 53.3381 9.31889 53.5201 9.22095C53.6781 9.13489 53.8451 9.04585 54.0121 8.98056C53.7378 9.09037 53.5081 9.12302 54.2865 8.94198C54.4356 8.90637 54.5997 8.87966 54.7458 8.83514C55.551 8.57694 54.3909 8.93308 54.1105 8.90637C54.2835 8.92121 54.5042 8.88559 54.6802 8.87372C54.8323 8.86482 55.0351 8.93308 55.1812 8.89746C55.1395 8.90637 53.8242 8.58585 54.3521 8.79062C54.4476 8.82921 54.5668 8.81437 54.6623 8.86185C55.4287 9.23579 54.2597 8.70159 54.1523 8.61256C54.2656 8.71049 54.5102 8.82624 54.6533 8.88559C55.2617 9.13489 53.7109 7.94183 54.2984 8.62146C54.379 8.71346 54.4744 8.80843 54.5639 8.89153C55.2051 9.48509 54.3312 8.5443 54.367 8.60662C54.877 9.46135 55.4377 10.2508 55.8642 11.1589C55.9178 11.2717 55.9685 11.3874 56.0222 11.5032C56.3592 12.1977 55.894 11.1767 55.8791 11.1678C56.0163 11.2628 56.1177 11.7881 56.1743 11.9484C56.4308 12.6636 56.6515 13.3907 56.8394 14.1267C57.0273 14.8627 57.1734 15.5513 57.2957 16.2695C57.3374 16.5039 57.3702 16.7414 57.409 16.9758C57.4001 16.9224 57.3404 16.1804 57.3673 16.7057C57.3941 17.231 57.4716 17.7267 57.5044 18.2371C57.5701 19.2699 57.585 20.3027 57.5551 21.3385C57.5372 21.9291 57.5044 22.5197 57.4567 23.1103C57.4388 23.3388 57.4179 23.5673 57.3941 23.7958C57.3732 24.0006 57.2778 24.8464 57.3553 24.2558C56.9825 27.0723 56.225 29.8383 55.3094 32.5241C54.364 35.296 56.8543 38.16 59.6219 38.16C66.2248 38.16 72.8276 38.16 79.4305 38.16C81.6016 38.16 83.7758 38.16 85.9469 38.16C88.288 38.16 90.5278 36.1122 90.4204 33.7083C90.313 31.3044 88.455 29.2566 85.9469 29.2566L85.9529 29.2595Z" fill="#0F6FF5"/>
<path d="M4.22852 39.4717L6.97524 75.5424L28.5703 75.1625V39.4717H4.22852Z" fill="#AACDFF"/>
<path d="M85.6967 33.7112H59.3717C64.6355 18.5636 60.0576 8.53837 57.4272 5.69225C54.7938 2.84613 50.4754 5.69225 50.4754 5.69225V17.881C45.8946 29.3931 40.1059 35.8777 36.4316 39.1097C36.4316 49.4139 36.4316 59.7181 36.4316 70.0223L41.6298 72.5538H76.6543C76.6543 72.5538 81.5751 71.3014 81.5751 67.7697C81.5751 64.238 79.401 63.2141 79.401 63.2141C79.401 63.2141 83.0633 61.7332 83.8656 58.2015C84.6678 54.6698 82.3774 52.8476 82.3774 52.8476C82.3774 52.8476 84.5515 52.165 86.0397 49.2032C87.5279 46.2413 84.8945 43.0539 84.8945 43.0539C87.6412 41.8015 88.6283 40.2285 88.6283 40.2285C90.9874 34.6669 85.6967 33.7142 85.6967 33.7142V33.7112Z" fill="#F6F9FF"/>
<path d="M23.8399 68.9746C23.8399 70.2538 22.7991 71.2895 21.5137 71.2895C20.2283 71.2895 19.1875 70.2538 19.1875 68.9746C19.1875 67.6955 20.2283 66.6598 21.5137 66.6598C22.7991 66.6598 23.8399 67.6955 23.8399 68.9746Z" fill="#F6F9FF"/>
</g>
<defs>
<clipPath id="clip0_3338_2512">
<rect width="94" height="80" fill="white"/>
</clipPath>
</defs>
</svg>
