<svg width="46" height="45" viewBox="0 0 46 45" fill="none" xmlns="http://www.w3.org/2000/svg">
<g clip-path="url(#clip0_3563_1412)">
<path d="M39.6977 7.22113C39.0412 7.22113 38.5065 7.75584 38.5065 8.41231C38.5065 9.06878 39.0412 9.60348 39.6977 9.60348C40.3912 9.60348 40.9524 10.1647 40.9524 10.8582V28.3076H6.05887V10.8582C6.05887 10.1647 6.62004 9.60348 7.31357 9.60348C8.0071 9.60348 8.50475 9.06878 8.50475 8.41231C8.50475 7.75584 7.97004 7.22113 7.31357 7.22113C5.3071 7.22113 3.67651 8.85172 3.67651 10.8582V31.0235C3.67651 33.03 5.3071 34.6605 7.31357 34.6605H19.4159L16.5359 38.9117C16.2871 39.277 16.2606 39.7482 16.4671 40.14C16.6736 40.5317 17.0812 40.7752 17.5206 40.7752H30.0465C30.4912 40.7752 30.8989 40.5264 31.1 40.1347C31.3065 39.7429 31.2748 39.2664 31.0206 38.9011L28.0718 34.6605H39.6977C41.7042 34.6605 43.3348 33.03 43.3348 31.0235V10.8582C43.3348 8.85172 41.7042 7.22113 39.6977 7.22113ZM19.76 38.3876L22.2165 34.7611H25.2395L27.7595 38.3876H19.7548H19.76ZM39.6977 32.2782H7.31357C6.62004 32.2782 6.05887 31.717 6.05887 31.0235V30.6847H40.9524V31.0235C40.9524 31.717 40.3912 32.2782 39.6977 32.2782Z" fill="#EF9E00"/>
<path d="M39.6977 7.22113C39.0412 7.22113 38.5065 7.75584 38.5065 8.41231C38.5065 9.06878 39.0412 9.60348 39.6977 9.60348C40.3912 9.60348 40.9524 10.1647 40.9524 10.8582V28.3076H6.05887V10.8582C6.05887 10.1647 6.62004 9.60348 7.31357 9.60348C8.0071 9.60348 8.50475 9.06878 8.50475 8.41231C8.50475 7.75584 7.97004 7.22113 7.31357 7.22113C5.3071 7.22113 3.67651 8.85172 3.67651 10.8582V31.0235C3.67651 33.03 5.3071 34.6605 7.31357 34.6605H19.4159L16.5359 38.9117C16.2871 39.277 16.2606 39.7482 16.4671 40.14C16.6736 40.5317 17.0812 40.7752 17.5206 40.7752H30.0465C30.4912 40.7752 30.8989 40.5264 31.1 40.1347C31.3065 39.7429 31.2748 39.2664 31.0206 38.9011L28.0718 34.6605H39.6977C41.7042 34.6605 43.3348 33.03 43.3348 31.0235V10.8582C43.3348 8.85172 41.7042 7.22113 39.6977 7.22113ZM19.76 38.3876L22.2165 34.7611H25.2395L27.7595 38.3876H19.7548H19.76ZM39.6977 32.2782H7.31357C6.62004 32.2782 6.05887 31.717 6.05887 31.0235V30.6847H40.9524V31.0235C40.9524 31.717 40.3912 32.2782 39.6977 32.2782Z" fill="black" fill-opacity="0.05"/>
<rect x="6.32349" y="6.88235" width="13.7647" height="2.64706" rx="1.32353" fill="#E39600"/>
<rect x="16.3823" y="15.3529" width="13.2353" height="2.64706" rx="1.32353" fill="#EF9E00"/>
<rect x="16.3823" y="15.3529" width="13.2353" height="2.64706" rx="1.32353" fill="black" fill-opacity="0.05"/>
<rect x="23.7942" y="6.88235" width="13.2353" height="2.64706" rx="1.32353" fill="#BB004D"/>
<rect x="16.3823" y="21.1765" width="13.2353" height="2.64706" rx="1.32353" fill="#EF9E00"/>
<rect x="16.3823" y="21.1765" width="13.2353" height="2.64706" rx="1.32353" fill="black" fill-opacity="0.05"/>
</g>
<defs>
<clipPath id="clip0_3563_1412">
<rect width="45" height="45" fill="white" transform="translate(0.5)"/>
</clipPath>
</defs>
</svg>
