<svg width="85" height="85" viewBox="0 0 85 85" fill="none" xmlns="http://www.w3.org/2000/svg">
<g clip-path="url(#clip0_293_6861)">
<path d="M78.43 45.29H78.13V21.19C78.13 21.19 78.13 21.16 78.13 21.15C78.13 21.13 78.13 21.12 78.13 21.1C78.13 20.4 77.78 19.79 77.27 19.39L61.63 2.97C61.22 2.38 60.55 2 59.78 2C59.78 2 59.77 2 59.76 2C59.76 2 59.75 2 59.74 2H15.48C11.01 2 7.38 5.63 7.38 10.1V39.05C4.95 39.14 3 41.13 3 43.57V78.37C3 80.87 5.04 82.91 7.54 82.91H78.43C80.93 82.91 82.97 80.87 82.97 78.37V49.82C82.97 47.32 80.93 45.28 78.43 45.28V45.29ZM62.03 17.07V9.92L70.64 18.95L64.99 19.03C62.3 18.85 62.02 17.68 62.02 17.24C62.02 17.18 62.02 17.12 62.02 17.06L62.03 17.07ZM15.48 6.5H57.54V17.02C57.52 17.56 57.58 19.43 59.01 21.07C60.3 22.55 62.26 23.38 64.82 23.53C64.86 23.53 64.9 23.53 64.95 23.53H64.98L73.64 23.41V45.28H31.85L26.65 40.29C25.8 39.48 24.69 39.03 23.51 39.03H11.88V10.1C11.88 8.11 13.5 6.5 15.48 6.5ZM78.48 78.37C78.48 78.37 78.46 78.41 78.44 78.41L7.51 78.37L7.55 43.53H23.55L28.75 48.52C29.6 49.33 30.72 49.78 31.89 49.78L78.49 49.82V78.37H78.48Z" fill="#EF9E00"/>
<path d="M20.9998 34.39H36.4498C38.2398 34.39 39.6998 32.93 39.6998 31.14V12.9C39.6998 11.11 38.2398 9.65002 36.4498 9.65002H20.9998C19.2098 9.65002 17.7598 11.11 17.7598 12.9V31.14C17.7598 32.93 19.2198 34.39 20.9998 34.39ZM22.2598 14.16H35.1998V29.89H22.2598V14.16Z" fill="#EF9E00"/>
<path d="M47.0801 31.36H66.0401C67.2801 31.36 68.2901 30.35 68.2901 29.11C68.2901 27.87 67.2801 26.86 66.0401 26.86H47.0801C45.8401 26.86 44.8301 27.87 44.8301 29.11C44.8301 30.35 45.8401 31.36 47.0801 31.36Z" fill="#EF9E00"/>
<path d="M47.0801 39.04H66.0401C67.2801 39.04 68.2901 38.03 68.2901 36.79C68.2901 35.55 67.2801 34.54 66.0401 34.54H47.0801C45.8401 34.54 44.8301 35.55 44.8301 36.79C44.8301 38.03 45.8401 39.04 47.0801 39.04Z" fill="#BB004D"/>
</g>
<defs>
<clipPath id="clip0_293_6861">
<rect width="79.98" height="80.91" fill="white" transform="translate(3 2)"/>
</clipPath>
</defs>
</svg>
