<svg width="46" height="45" viewBox="0 0 46 45" fill="none" xmlns="http://www.w3.org/2000/svg">
<path d="M15.3235 12.9706C15.3235 9.02368 18.5238 5.82355 22.4705 5.82355C26.4173 5.82355 29.6176 9.02368 29.6176 12.9706C29.6176 16.9175 26.4173 20.1177 22.4705 20.1177C18.5238 20.1177 15.3235 16.9175 15.3235 12.9706Z" stroke="#EF9E00" stroke-width="3" stroke-linecap="round" stroke-linejoin="round"/>
<path d="M15.3235 12.9706C15.3235 9.02368 18.5238 5.82355 22.4705 5.82355C26.4173 5.82355 29.6176 9.02368 29.6176 12.9706C29.6176 16.9175 26.4173 20.1177 22.4705 20.1177C18.5238 20.1177 15.3235 16.9175 15.3235 12.9706Z" stroke="black" stroke-opacity="0.05" stroke-width="3" stroke-linecap="round" stroke-linejoin="round"/>
<path d="M9.49999 32.2941C9.00473 33.4237 8.64366 34.1902 8.44116 35.4706" stroke="#BB004D" stroke-width="3" stroke-linecap="round" stroke-linejoin="round"/>
<path d="M9.5 39.1765H36.3006C36.9953 39.1765 37.5588 38.5282 37.5588 37.7289C37.5588 30.3719 32.3273 24.353 25.9327 24.353H19.8667C16.0271 24.353 13.2292 26.2222 11.6766 28.3703" stroke="#EF9E00" stroke-width="3" stroke-linecap="round" stroke-linejoin="round"/>
<path d="M9.5 39.1765H36.3006C36.9953 39.1765 37.5588 38.5282 37.5588 37.7289C37.5588 30.3719 32.3273 24.353 25.9327 24.353H19.8667C16.0271 24.353 13.2292 26.2222 11.6766 28.3703" stroke="black" stroke-opacity="0.05" stroke-width="3" stroke-linecap="round" stroke-linejoin="round"/>
</svg>
