<svg width="85" height="85" viewBox="0 0 85 85" fill="none" xmlns="http://www.w3.org/2000/svg">
<path d="M81.5 15.35L42.79 0.200005C42.12 -0.0599951 41.38 -0.0599951 40.71 0.200005L1.83 15.35C0.72 15.78 0 16.83 0 18.02V24.14C0 25.72 1.29 27.01 2.87 27.01H3.26V29.75C3.26 31.68 4.68 33.26 6.53 33.55C6.47 33.87 6.44 34.2 6.44 34.54C6.44 37.21 8.38 39.43 10.92 39.88V58.68C8.38 59.13 6.44 61.35 6.44 64.02C6.44 64.36 6.48 64.7 6.54 65.03H5.53C3.2 65.03 1.31 66.92 1.31 69.25V73.29C1.31 75.62 3.2 77.51 5.53 77.51H76.83C79.16 77.51 81.05 75.62 81.05 73.29V69.25C81.05 66.97 79.23 65.11 76.96 65.04C77.02 64.71 77.06 64.37 77.06 64.02C77.06 61.38 75.16 59.18 72.66 58.69V39.86C75.16 39.38 77.06 37.18 77.06 34.53C77.06 34.17 77.02 33.82 76.96 33.49C78.65 33.08 79.91 31.56 79.91 29.75V27.01H80.46C82.04 27.01 83.33 25.72 83.33 24.14V18.02C83.33 16.83 82.61 15.78 81.51 15.35H81.5ZM4.5 19.13L41.74 4.62L78.82 19.13V22.51H4.5V19.13ZM20.28 39.96V58.59H15.41V39.96H20.28ZM11.86 63.09H23.75C24.26 63.09 24.68 63.51 24.68 64.02C24.68 64.53 24.26 64.95 23.75 64.95H11.86C11.35 64.95 10.93 64.53 10.93 64.02C10.93 63.51 11.35 63.09 11.86 63.09ZM24.67 34.54C24.67 35.05 24.25 35.47 23.74 35.47H11.85C11.34 35.47 10.92 35.05 10.92 34.54C10.92 34.03 11.34 33.61 11.85 33.61H23.74C24.25 33.61 24.67 34.03 24.67 34.54ZM24.77 58.69V39.86C27.27 39.38 29.17 37.18 29.17 34.53C29.17 34.21 29.14 33.91 29.09 33.6H29.97C29.92 33.9 29.89 34.21 29.89 34.53C29.89 37.2 31.83 39.42 34.37 39.87V58.67C31.83 59.12 29.89 61.34 29.89 64.01C29.89 64.35 29.93 64.69 29.99 65.02H29.08C29.14 64.69 29.18 64.36 29.18 64.01C29.18 61.37 27.28 59.17 24.78 58.68L24.77 58.69ZM72.55 34.54C72.55 35.05 72.13 35.47 71.62 35.47H59.73C59.22 35.47 58.8 35.05 58.8 34.54C58.8 34.03 59.22 33.61 59.73 33.61H71.62C72.13 33.61 72.55 34.03 72.55 34.54ZM71.62 64.95H59.73C59.22 64.95 58.8 64.53 58.8 64.02C58.8 63.51 59.22 63.09 59.73 63.09H71.62C72.13 63.09 72.55 63.51 72.55 64.02C72.55 64.53 72.13 64.95 71.62 64.95ZM63.28 58.6V39.97H68.14V58.6H63.28ZM58.78 39.88V58.68C56.24 59.13 54.3 61.35 54.3 64.02C54.3 64.36 54.34 64.7 54.4 65.03H52.52C52.58 64.7 52.62 64.37 52.62 64.02C52.62 61.38 50.72 59.18 48.22 58.69V39.86C50.72 39.38 52.62 37.18 52.62 34.53C52.62 34.21 52.59 33.91 52.54 33.6H54.4C54.35 33.9 54.32 34.21 54.32 34.53C54.32 37.2 56.26 39.42 58.8 39.87L58.78 39.88ZM48.11 64.02C48.11 64.53 47.69 64.95 47.18 64.95H35.29C34.78 64.95 34.36 64.53 34.36 64.02C34.36 63.51 34.78 63.09 35.29 63.09H47.18C47.69 63.09 48.11 63.51 48.11 64.02ZM43.71 58.59H38.85V39.96H43.71V58.59ZM48.11 34.54C48.11 35.05 47.69 35.47 47.18 35.47H35.29C34.78 35.47 34.36 35.05 34.36 34.54C34.36 34.03 34.78 33.61 35.29 33.61H47.18C47.69 33.61 48.11 34.03 48.11 34.54ZM76.53 73.01H5.8V69.53H76.54V73.01H76.53ZM75.39 29.12H7.76V27.02H75.41V29.12H75.39Z" fill="#EF9E00"/>
<path d="M81.5 15.35L42.79 0.200005C42.12 -0.0599951 41.38 -0.0599951 40.71 0.200005L1.83 15.35C0.72 15.78 0 16.83 0 18.02V24.14C0 25.72 1.29 27.01 2.87 27.01H3.26V29.75C3.26 31.68 4.68 33.26 6.53 33.55C6.47 33.87 6.44 34.2 6.44 34.54C6.44 37.21 8.38 39.43 10.92 39.88V58.68C8.38 59.13 6.44 61.35 6.44 64.02C6.44 64.36 6.48 64.7 6.54 65.03H5.53C3.2 65.03 1.31 66.92 1.31 69.25V73.29C1.31 75.62 3.2 77.51 5.53 77.51H76.83C79.16 77.51 81.05 75.62 81.05 73.29V69.25C81.05 66.97 79.23 65.11 76.96 65.04C77.02 64.71 77.06 64.37 77.06 64.02C77.06 61.38 75.16 59.18 72.66 58.69V39.86C75.16 39.38 77.06 37.18 77.06 34.53C77.06 34.17 77.02 33.82 76.96 33.49C78.65 33.08 79.91 31.56 79.91 29.75V27.01H80.46C82.04 27.01 83.33 25.72 83.33 24.14V18.02C83.33 16.83 82.61 15.78 81.51 15.35H81.5ZM4.5 19.13L41.74 4.62L78.82 19.13V22.51H4.5V19.13ZM20.28 39.96V58.59H15.41V39.96H20.28ZM11.86 63.09H23.75C24.26 63.09 24.68 63.51 24.68 64.02C24.68 64.53 24.26 64.95 23.75 64.95H11.86C11.35 64.95 10.93 64.53 10.93 64.02C10.93 63.51 11.35 63.09 11.86 63.09ZM24.67 34.54C24.67 35.05 24.25 35.47 23.74 35.47H11.85C11.34 35.47 10.92 35.05 10.92 34.54C10.92 34.03 11.34 33.61 11.85 33.61H23.74C24.25 33.61 24.67 34.03 24.67 34.54ZM24.77 58.69V39.86C27.27 39.38 29.17 37.18 29.17 34.53C29.17 34.21 29.14 33.91 29.09 33.6H29.97C29.92 33.9 29.89 34.21 29.89 34.53C29.89 37.2 31.83 39.42 34.37 39.87V58.67C31.83 59.12 29.89 61.34 29.89 64.01C29.89 64.35 29.93 64.69 29.99 65.02H29.08C29.14 64.69 29.18 64.36 29.18 64.01C29.18 61.37 27.28 59.17 24.78 58.68L24.77 58.69ZM72.55 34.54C72.55 35.05 72.13 35.47 71.62 35.47H59.73C59.22 35.47 58.8 35.05 58.8 34.54C58.8 34.03 59.22 33.61 59.73 33.61H71.62C72.13 33.61 72.55 34.03 72.55 34.54ZM71.62 64.95H59.73C59.22 64.95 58.8 64.53 58.8 64.02C58.8 63.51 59.22 63.09 59.73 63.09H71.62C72.13 63.09 72.55 63.51 72.55 64.02C72.55 64.53 72.13 64.95 71.62 64.95ZM63.28 58.6V39.97H68.14V58.6H63.28ZM58.78 39.88V58.68C56.24 59.13 54.3 61.35 54.3 64.02C54.3 64.36 54.34 64.7 54.4 65.03H52.52C52.58 64.7 52.62 64.37 52.62 64.02C52.62 61.38 50.72 59.18 48.22 58.69V39.86C50.72 39.38 52.62 37.18 52.62 34.53C52.62 34.21 52.59 33.91 52.54 33.6H54.4C54.35 33.9 54.32 34.21 54.32 34.53C54.32 37.2 56.26 39.42 58.8 39.87L58.78 39.88ZM48.11 64.02C48.11 64.53 47.69 64.95 47.18 64.95H35.29C34.78 64.95 34.36 64.53 34.36 64.02C34.36 63.51 34.78 63.09 35.29 63.09H47.18C47.69 63.09 48.11 63.51 48.11 64.02ZM43.71 58.59H38.85V39.96H43.71V58.59ZM48.11 34.54C48.11 35.05 47.69 35.47 47.18 35.47H35.29C34.78 35.47 34.36 35.05 34.36 34.54C34.36 34.03 34.78 33.61 35.29 33.61H47.18C47.69 33.61 48.11 34.03 48.11 34.54ZM76.53 73.01H5.8V69.53H76.54V73.01H76.53ZM75.39 29.12H7.76V27.02H75.41V29.12H75.39Z" fill="black" fill-opacity="0.05"/>
<path d="M41.3402 20.74C45.1402 20.74 48.2302 17.65 48.2302 13.85C48.2302 10.05 45.1402 6.95996 41.3402 6.95996C37.5402 6.95996 34.4502 10.05 34.4502 13.85C34.4502 17.65 37.5402 20.74 41.3402 20.74ZM41.3402 11.46C42.6602 11.46 43.7302 12.53 43.7302 13.85C43.7302 15.17 42.6602 16.24 41.3402 16.24C40.0202 16.24 38.9502 15.17 38.9502 13.85C38.9502 12.53 40.0202 11.46 41.3402 11.46Z" fill="#BB004D"/>
</svg>
